<svg width="94" height="53" viewBox="0 0 94 53" fill="none" xmlns="http://www.w3.org/2000/svg">
<path d="M13.5128 27.9364C12.1582 27.5032 10.9309 27.2887 10.9309 26.4224C10.9309 25.4283 11.9407 25.1478 12.8027 25.1891C13.6647 25.2097 14.6335 25.6428 15.0604 26.4637L16.6325 25.1437C15.9224 23.9103 14.223 23.1966 12.4374 23.1966C10.1551 23.2173 8.34891 24.3434 8.34891 26.439C8.34891 28.6665 10.2413 29.3348 11.875 29.8751C13.168 30.2877 14.3256 30.5682 14.3256 31.4303C14.3256 32.2924 13.5087 32.6843 12.2814 32.6431C11.1607 32.5771 10.0237 32.0161 9.61321 31.0879L8 32.4946C8.77582 33.7692 10.5163 34.6355 12.581 34.6355C14.9906 34.6561 16.9691 33.596 16.9691 31.4344C16.9691 29.1656 15.1384 28.4726 13.5046 27.9322L13.5128 27.9364Z" fill="#EEEEEE"/>
<path d="M24.1229 32.197C22.251 32.2177 20.8759 30.9018 20.8759 28.9094C20.8759 26.9169 22.251 25.6217 24.1229 25.6464C25.1983 25.6464 26.1014 26.0795 26.6843 26.8592L28.4494 25.3907C27.415 24.0294 25.9331 23.2291 23.9751 23.2085C20.5311 23.1879 18.2734 25.5639 18.2734 28.8722C18.2734 32.1806 20.5311 34.6432 23.9751 34.6432C25.9536 34.6432 27.4601 33.7357 28.5151 32.3291L26.7089 30.9224C26.1507 31.7433 25.2024 32.197 24.127 32.197H24.1229Z" fill="#EEEEEE"/>
<path d="M39.0285 25.8178C38.3184 24.3039 37.0294 23.2025 35.0057 23.2025C31.9066 23.2025 29.8008 25.5579 29.8008 28.8662C29.8008 32.1745 31.9107 34.6372 35.0057 34.6372C37.0294 34.6372 38.3184 33.5111 39.0285 31.9559V34.3774H41.7172V23.417H39.0285V25.8178ZM35.7364 32.1952C33.8851 32.1952 32.51 30.8999 32.51 28.9075C32.51 26.9151 33.8851 25.6445 35.7364 25.6445C37.5877 25.6445 39.008 26.8986 39.008 28.9075C39.008 30.9164 37.5877 32.1952 35.7364 32.1952Z" fill="#EEEEEE"/>
<path d="M46.6652 18.3568H43.9766V34.3992H46.6652V18.3568Z" fill="#EEEEEE"/>
<path d="M54.1342 23.2025C50.5835 23.2025 48.4531 25.5579 48.4531 28.8662C48.4531 32.1745 50.7354 34.6372 54.3929 34.6372C56.3057 34.6372 58.0298 33.9442 59.1052 32.7149L57.1472 31.2877C56.5028 31.9559 55.5135 32.3684 54.3929 32.3478C52.6072 32.3478 51.3594 31.2217 51.187 29.5799H59.7702C60.0083 25.8838 57.9189 23.2025 54.1342 23.2025ZM51.187 28.1732C51.3799 26.5314 52.48 25.4713 54.2656 25.4713C56.0512 25.4713 57.2129 26.5108 57.4058 28.132L51.187 28.1732Z" fill="#EEEEEE"/>
<path d="M72.3536 23.4183H69.2545L64.9074 27.3742V18.3568H62.2188V34.3992H64.9074V29.3419L69.5993 34.3992H72.7847L67.1241 28.3477L72.3536 23.4183Z" fill="#EEEEEE"/>
<path d="M74.6133 34.3977H77.302V23.3919H74.6133V34.3977Z" fill="#EEEEEE"/>
<path d="M83.5424 30.2693V25.6204H85.7385V23.4134H83.5424V20.431L80.8537 21.0786V23.4134H79.1953V25.6204H80.8537V30.6571C80.8537 34.118 82.6598 34.6337 85.9971 34.3738V32.2783C84.1909 32.4061 83.5465 31.9524 83.5465 30.2693H83.5424Z" fill="#EEEEEE"/>
<path d="M75.9624 21.6572C76.8693 21.6572 77.6045 20.9184 77.6045 20.007C77.6045 19.0956 76.8693 18.3568 75.9624 18.3568C75.0555 18.3568 74.3203 19.0956 74.3203 20.007C74.3203 20.9184 75.0555 21.6572 75.9624 21.6572Z" fill="#EEEEEE"/>
</svg>
